<svg width="107" height="40" viewBox="0 0 107 40" fill="none" xmlns="http://www.w3.org/2000/svg"><g clip-path="url(#clip0)"><path d="M51.5166 12.291C53.9821 12.291 56.4044 12.291 58.8699 12.291C58.8699 21.7156 58.8699 29.924 58.8699 39.392C56.4477 39.392 53.9821 39.392 51.5166 39.392C51.5166 29.9675 51.5166 21.8024 51.5166 12.291Z" fill="#261F63"></path><path d="M35.5557 2.47559C35.7287 2.47559 40.6165 2.47559 42.909 2.47559C42.909 10.8143 42.8658 17.9805 42.8225 26.3192C42.8225 27.5353 42.909 28.7079 43.5146 29.7937C44.2067 31.0532 45.2881 31.7916 46.7155 31.8784C46.8453 31.8784 47.6238 31.9653 47.7969 31.9653C47.7969 34.4408 47.7969 36.873 47.7969 39.3486C46.6722 39.3486 44.8988 39.2183 43.8607 38.9142C39.4919 37.6113 36.9831 34.5711 35.9017 30.1846C35.6422 29.0988 35.5125 27.9696 35.5125 26.8404C35.5557 18.5451 35.5557 2.64931 35.5557 2.47559Z" fill="#261F63"></path><path d="M55.1933 9.85887C53.1603 9.85887 51.5166 8.20849 51.5166 6.16723C51.5166 4.12597 53.1603 2.47559 55.1933 2.47559C57.2263 2.47559 58.8699 4.12597 58.8699 6.16723C58.8699 8.20849 57.2263 9.85887 55.1933 9.85887Z" fill="#261F63"></path><path d="M28.2023 39.3919C26.1693 39.3919 24.5256 37.7416 24.5256 35.7003C24.5256 33.659 26.1693 32.0087 28.2023 32.0087C30.2353 32.0087 31.879 33.659 31.879 35.7003C31.879 37.7416 30.2353 39.3919 28.2023 39.3919Z" fill="#261F63"></path><path d="M0 5.68946L0.25953 5.08142C0.562314 5.29858 0.994863 5.42887 1.42741 5.42887C1.90322 5.42887 2.11949 5.25515 2.11949 5.03799C2.11949 4.38653 0.0865099 4.82084 0.0865099 3.51791C0.0865099 2.90987 0.562314 2.43213 1.55718 2.43213C1.98973 2.43213 2.46553 2.51899 2.76832 2.73615L2.50879 3.38761C2.16275 3.21389 1.85996 3.12703 1.55718 3.12703C1.03812 3.12703 0.865099 3.30075 0.865099 3.51791C0.865099 4.16937 2.89808 3.73506 2.89808 4.99456C2.89808 5.6026 2.42228 6.08034 1.42741 6.08034C0.865099 6.08034 0.302785 5.90661 0 5.68946Z" fill="#261F63"></path><path d="M3.54688 4.51685V2.47559H4.36872V4.47342C4.36872 5.16831 4.6715 5.4289 5.14731 5.4289C5.62311 5.4289 5.9259 5.12488 5.9259 4.47342V2.47559H6.70449V4.51685C6.70449 5.60262 6.09892 6.16723 5.10405 6.16723C4.10919 6.16723 3.54688 5.55919 3.54688 4.51685Z" fill="#261F63"></path><path d="M10.6841 3.82195C10.6841 4.64714 10.0785 5.16831 9.17017 5.16831H8.47809V6.16723H7.65625V2.47559H9.17017C10.0785 2.47559 10.6841 2.95333 10.6841 3.82195ZM9.86225 3.82195C9.86225 3.43107 9.60272 3.17048 9.12692 3.17048H8.47809V4.47342H9.12692C9.60272 4.42998 9.86225 4.21283 9.86225 3.82195Z" fill="#261F63"></path><path d="M14.101 5.47233V6.16723H11.376V2.47559H14.0145V3.17048H12.1546V3.95224H13.7983V4.60371H12.1546V5.47233H14.101Z" fill="#261F63"></path><path d="M17.0856 6.16723L16.4368 5.12488H16.3936H15.7015V6.16723H14.8796V2.47559H16.3936C17.3452 2.47559 17.9075 2.99676 17.9075 3.82195C17.9075 4.38655 17.648 4.77743 17.1722 4.99459L17.9507 6.16723H17.0856ZM16.3503 3.17048H15.7015V4.47342H16.3503C16.8261 4.47342 17.0856 4.21283 17.0856 3.82195C17.0856 3.38764 16.8261 3.17048 16.3503 3.17048Z" fill="#261F63"></path><path d="M23.4441 5.38547H21.8004L21.4976 6.16723H20.6758L22.233 2.47559H23.0115L24.5687 6.16723H23.7036L23.4441 5.38547ZM23.2278 4.734L22.6655 3.30078L22.1032 4.734H23.2278Z" fill="#261F63"></path><path d="M28.159 3.82195C28.159 4.64714 27.5534 5.16831 26.645 5.16831H25.9529V6.16723H25.1311V2.47559H26.645C27.5534 2.47559 28.159 2.95333 28.159 3.82195ZM27.3371 3.82195C27.3371 3.43107 27.0776 3.17048 26.6018 3.17048H25.9529V4.47342H26.6018C27.0776 4.42998 27.3371 4.21283 27.3371 3.82195Z" fill="#261F63"></path><path d="M31.8789 3.82195C31.8789 4.64714 31.2733 5.16831 30.365 5.16831H29.6729V6.16723H28.8511V2.47559H30.365C31.2733 2.47559 31.8789 2.95333 31.8789 3.82195ZM31.0571 3.82195C31.0571 3.43107 30.7975 3.17048 30.3217 3.17048H29.6729V4.47342H30.3217C30.7975 4.42998 31.0571 4.21283 31.0571 3.82195Z" fill="#261F63"></path><path d="M15.9611 25.8415L8.17518 12.291H0L15.9611 40L31.8789 12.291H23.7037L15.9611 25.8415Z" fill="#4978FF"></path><path d="M85.9043 3.04013C85.0825 2.34524 84.2174 1.78063 83.309 1.30289C82.8332 1.08573 82.3574 0.868579 81.8384 0.694855C80.6272 0.260544 79.3296 0.08682 78.0319 -4.21703e-05C76.1287 -0.0869043 74.2688 0.130251 72.4521 0.868579C71.5004 1.25946 70.5921 1.7372 69.8135 2.38867C68.9484 3.08356 68.2563 3.99562 67.694 4.9511C67.0884 5.99344 66.6991 7.07922 66.4396 8.25186C66.3531 8.68617 66.2666 9.16391 66.2666 9.64165C66.2233 10.5971 66.1801 11.1617 66.1801 12.1172C66.1801 12.2041 66.1801 12.2475 66.1801 12.3344C64.9257 12.3344 63.7146 12.3344 62.5034 12.3344C62.5034 13.507 62.5034 14.8534 62.5034 16.1563C62.5034 16.9815 62.5034 17.7633 62.5034 18.5016C62.936 18.5016 63.4118 18.5016 63.8443 18.5016C64.6229 18.5016 65.4015 18.5016 66.1801 18.5016C66.1801 19.848 66.1801 21.1943 66.1801 22.5841C66.1801 28.1867 66.1801 33.7893 66.1801 39.4354C68.4726 39.4354 70.7651 39.4354 73.0576 39.4354C73.0576 34.9185 73.0576 30.4017 73.0576 25.8849C73.0576 23.4527 73.0576 21.0206 73.0576 18.545C74.485 18.545 75.8692 18.545 77.2534 18.545L80.8003 12.3778H73.0576C73.0576 12.3778 73.0576 12.3778 73.0576 12.3344V9.77195C73.0576 9.46793 73.1009 9.20734 73.1441 8.90333C73.3604 7.33981 74.2688 6.34089 75.6962 5.81972C75.8692 5.77629 75.999 5.73286 76.172 5.68943C77.0371 5.5157 78.0319 5.55913 78.897 5.81972C81.2328 6.55805 82.0979 8.12157 82.7467 8.94676L86.0774 3.17043C85.9908 3.12699 85.9476 3.08356 85.9043 3.04013Z" fill="#261F63"></path><path d="M106.667 25.494C106.667 25.3637 106.667 25.2769 106.623 25.1466C106.623 25.0163 106.623 24.9294 106.58 24.7991C106.58 24.7123 106.537 24.582 106.537 24.4951C106.537 24.3648 106.494 24.2345 106.494 24.1042C106.494 24.0608 106.494 24.0174 106.494 23.9739C106.364 22.975 106.104 21.9327 105.715 20.9338C105.672 20.76 105.585 20.5863 105.542 20.4126C104.807 18.5016 103.682 16.8947 102.168 15.5918C100.654 14.2888 99.1403 13.4202 97.5399 12.9425C97.1939 12.8556 96.8478 12.7687 96.5018 12.6819C95.2907 12.3779 94.0795 12.2476 92.9116 12.2476C91.3977 12.2476 89.9703 12.4647 88.5861 12.8556C88.1103 12.9859 87.6778 13.1596 87.2452 13.3333C85.4718 14.0282 83.9146 15.0271 82.6602 16.2866C81.3626 17.5461 80.3677 19.0228 79.6756 20.7166C78.9835 22.4104 78.5942 24.1911 78.5942 26.1021C78.5942 28.013 78.9835 29.7937 79.7621 31.4875C80.5407 33.1813 81.6221 34.658 82.963 35.9175C84.3039 37.177 85.9476 38.1759 87.7643 38.8708C89.6242 39.5657 91.5275 39.9131 93.5172 39.9131C95.4204 39.9131 97.2371 39.6091 99.0106 38.9577C100.308 38.4799 101.476 37.9153 102.557 37.177L99.3999 31.6178C97.7562 33.2248 95.8097 34.0065 93.5605 34.0065C91.7005 34.0065 90.0568 33.4419 88.4996 32.3127C86.9857 31.1835 85.9908 29.7503 85.515 28.013H97.3669H102.601H106.407H106.537C106.623 27.3616 106.71 26.7101 106.71 26.0152C106.667 25.9283 106.667 25.7112 106.667 25.494ZM94.1228 22.4539H86.1206C86.7694 21.1509 87.6778 20.1086 88.9322 19.3268C89.7973 18.7622 90.7489 18.4148 91.7437 18.241C92.133 18.1542 92.5656 18.1542 92.9981 18.1542C94.4688 18.1542 95.8097 18.5451 96.9343 19.3703C98.059 20.1954 98.9241 21.1944 99.4431 22.4539H94.1228Z" fill="#261F63"></path></g><defs><clipPath id="clip0"><rect width="106.667" height="40" fill="white"></rect></clipPath></defs></svg>